<?xml version="1.0" standalone="no"?>
<!DOCTYPE svg PUBLIC "-//W3C//DTD SVG 20010904//EN"
 "http://www.w3.org/TR/2001/REC-SVG-20010904/DTD/svg10.dtd">
<svg version="1.0" xmlns="http://www.w3.org/2000/svg"
 width="600.000000pt" height="600.000000pt" viewBox="0 0 600.000000 600.000000"
 preserveAspectRatio="xMidYMid meet">
<metadata>
Created by potrace 1.16, written by Peter Selinger 2001-2019
</metadata>
<g transform="translate(0.000000,600.000000) scale(0.100000,-0.100000)"
fill="#000000" stroke="none">
<path d="M2798 5244 c4 -23 -11 -34 -22 -15 -3 4 -17 6 -31 4 -13 -3 -22 -9
-19 -14 3 -5 1 -9 -5 -9 -5 0 -12 6 -14 13 -3 7 -6 5 -6 -5 -1 -10 -5 -18 -10
-18 -5 0 -8 -11 -5 -25 2 -14 0 -25 -6 -25 -5 0 -10 -7 -10 -15 0 -9 -6 -12
-15 -9 -8 4 -15 1 -15 -5 0 -6 4 -11 9 -11 6 0 9 -9 8 -20 -1 -12 -7 -18 -14
-16 -7 3 -13 -1 -13 -9 0 -8 -5 -15 -11 -15 -5 0 -8 4 -5 8 2 4 -4 8 -15 8
-21 0 -25 -16 -8 -33 9 -9 1 -11 -27 -9 -28 2 -43 -3 -52 -16 -8 -11 -21 -18
-30 -17 -10 0 -27 -2 -40 -6 -17 -6 -20 -10 -11 -21 8 -10 5 -15 -15 -20 -15
-3 -36 -4 -47 -1 -20 5 -20 5 -4 -13 9 -10 27 -21 39 -23 11 -2 -11 -5 -51 -6
-42 0 -75 -6 -79 -13 -4 -7 -3 -8 4 -4 7 4 12 3 12 -3 0 -6 -14 -18 -30 -26
-17 -9 -40 -24 -51 -33 -10 -9 -41 -29 -67 -43 -26 -14 -46 -31 -44 -38 1 -7
-6 -15 -15 -17 -17 -5 -89 -100 -120 -157 -33 -61 -52 -107 -51 -124 0 -10 -7
-40 -17 -67 -15 -43 -16 -70 -10 -205 12 -255 13 -284 6 -337 -4 -27 -4 -62 0
-77 4 -15 10 -64 14 -110 8 -94 9 -102 19 -139 4 -14 6 -34 4 -44 -2 -14 -11
-10 -46 20 -49 41 -83 45 -112 16 -32 -32 -58 -193 -28 -174 8 5 9 0 6 -14 -4
-12 -2 -22 2 -22 5 0 12 -27 16 -60 8 -71 24 -71 20 0 -4 56 12 160 24 160 14
0 19 -57 9 -95 -14 -51 -3 -57 12 -6 7 23 16 41 21 41 16 0 8 47 -12 65 -11
10 -18 20 -15 23 3 3 0 12 -7 19 -16 19 10 37 30 21 8 -7 9 -13 3 -18 -15 -9
18 -53 34 -46 7 2 23 -3 34 -13 17 -15 21 -30 21 -77 0 -33 -4 -54 -8 -49 -4
6 -14 10 -22 10 -8 0 -21 13 -28 28 -22 46 -24 24 -3 -26 17 -39 18 -46 5 -51
-9 -3 -12 -11 -8 -17 3 -6 0 -15 -7 -20 -12 -7 -12 -9 0 -9 12 0 11 -3 -1 -17
-19 -22 -41 -117 -27 -121 5 -2 9 -12 9 -23 0 -11 7 -22 15 -25 8 -4 15 -16
15 -28 0 -18 10 -25 48 -37 38 -13 46 -19 44 -36 -2 -12 2 -24 8 -28 5 -3 10
-12 10 -18 0 -7 -4 -6 -10 3 -15 23 -12 6 5 -26 24 -46 19 -81 -12 -98 l-28
-15 25 0 c47 -1 53 10 47 95 -5 77 -46 266 -60 280 -7 8 0 -80 9 -108 4 -13 1
-16 -10 -12 -9 3 -16 11 -16 16 0 5 -9 17 -19 26 -10 10 -21 32 -25 49 -4 27
-1 37 21 57 15 14 30 23 33 21 4 -3 10 24 14 58 13 135 59 385 79 437 11 30
29 62 39 71 10 9 18 26 18 37 0 11 4 23 10 27 5 3 7 12 4 19 -3 7 2 21 12 30
9 9 17 30 18 46 1 15 9 37 19 48 12 13 15 22 7 27 -14 9 -1 28 15 21 8 -3 18
7 24 26 15 43 14 47 -11 41 -21 -4 -21 -3 -5 7 13 8 22 9 31 1 10 -8 16 -5 24
14 10 21 9 25 -4 25 -11 0 -13 4 -6 16 5 9 7 24 5 33 -5 20 24 91 38 91 5 0 7
5 4 10 -3 6 1 13 9 16 9 3 16 11 16 16 0 21 93 74 110 63 5 -3 18 7 29 22 15
20 19 22 14 8 -7 -20 -7 -20 21 -2 15 11 37 16 48 14 11 -3 21 0 25 9 3 8 13
14 22 12 9 -1 26 4 39 10 12 7 28 10 34 6 7 -4 27 -7 44 -6 18 2 55 -7 83 -18
59 -23 75 -25 65 -9 -4 7 11 0 32 -15 21 -14 44 -26 50 -26 6 0 23 -9 38 -21
14 -11 30 -17 36 -14 5 3 10 1 10 -4 0 -6 5 -11 11 -11 5 0 7 5 4 10 -3 6 -2
10 4 10 5 0 12 -4 16 -9 3 -6 30 -9 59 -8 30 1 53 4 51 7 -2 3 21 6 50 8 29 2
56 -2 60 -8 3 -5 18 -10 33 -10 20 0 23 3 13 9 -8 5 -21 6 -30 3 -13 -5 -13
-4 -2 9 15 15 71 22 71 8 0 -5 7 -9 15 -9 8 0 15 -4 15 -9 0 -18 40 -22 72 -8
60 27 65 27 96 -2 35 -34 62 -71 62 -86 0 -7 -15 -10 -37 -8 l-38 4 39 -15
c47 -18 53 -23 62 -60 5 -21 4 -27 -5 -22 -6 4 -11 2 -11 -3 0 -6 4 -11 10
-11 5 0 13 -15 18 -32 7 -27 5 -36 -11 -50 -11 -10 -15 -18 -8 -18 8 0 9 -5 1
-19 -5 -11 -7 -27 -4 -35 3 -9 0 -18 -8 -21 -8 -3 -13 -16 -12 -28 1 -12 3
-30 3 -41 1 -12 6 -16 16 -12 9 3 15 0 15 -9 0 -8 -5 -15 -11 -15 -6 0 -3 -7
6 -17 13 -13 18 -14 25 -3 5 8 10 -1 13 -26 8 -56 6 -73 -10 -67 -7 3 -13 0
-13 -7 0 -6 -4 -9 -9 -6 -19 12 -45 -35 -44 -79 2 -53 -4 -59 -41 -39 -36 18
-64 18 -82 -1 -9 -8 -29 -15 -45 -15 -20 0 -28 -4 -23 -12 5 -7 3 -8 -6 -3
-20 12 -103 15 -116 4 -7 -6 -27 -11 -46 -13 -18 -2 -41 -6 -50 -10 -9 -4 -22
-8 -30 -10 -7 -1 -18 -5 -25 -9 -6 -4 -13 -2 -15 4 -7 20 -37 -38 -40 -75 -1
-20 -11 -46 -22 -58 -17 -18 -20 -37 -21 -127 -1 -58 2 -119 7 -136 4 -16 4
-31 -1 -33 -16 -5 14 -142 42 -189 13 -24 17 -43 13 -65 -3 -17 0 -49 9 -74
14 -42 14 -46 -11 -91 -32 -62 -34 -64 -77 -66 -20 -2 -39 -6 -43 -10 -14 -14
-32 -7 -72 27 -33 27 -48 33 -79 31 -64 -5 -77 20 -47 90 10 26 18 34 23 26 6
-10 9 -10 14 2 3 7 1 20 -4 28 -7 11 -9 11 -9 1 0 -7 -5 -10 -10 -7 -23 14
-59 -52 -62 -115 -3 -65 24 -106 91 -136 37 -17 58 -21 70 -15 11 7 21 5 34
-7 10 -9 30 -15 45 -14 19 1 31 -5 41 -21 14 -22 14 -22 -7 -4 -23 21 -59 16
-59 -8 0 -8 4 -15 9 -15 11 0 6 -23 -7 -32 -6 -5 -4 -12 5 -18 22 -14 38 25
22 51 -16 25 -15 28 4 25 9 -1 23 -11 30 -21 8 -10 14 -13 14 -7 0 20 37 -4
43 -27 4 -15 1 -18 -12 -14 -9 4 -3 -5 14 -18 16 -13 35 -23 42 -21 7 1 21 -6
33 -18 11 -11 16 -20 10 -20 -5 0 -10 -4 -10 -10 0 -5 8 -7 18 -3 14 5 15 3 5
-7 -8 -9 -30 -13 -58 -11 -24 1 -63 -3 -86 -9 -33 -9 -51 -8 -94 5 -54 17 -87
16 -165 -5 -32 -8 -45 -9 -48 -1 -5 14 -42 14 -42 0 0 -6 -7 -9 -15 -5 -8 3
-21 -1 -29 -9 -19 -20 -27 -19 -19 2 5 15 4 15 -9 -1 -10 -13 -22 -17 -37 -13
-14 3 -24 0 -28 -9 -3 -8 -14 -14 -24 -14 -16 0 -18 -5 -13 -27 4 -16 11 -31
17 -34 13 -9 18 -59 6 -59 -6 0 -8 -4 -5 -9 3 -5 -2 -12 -12 -16 -15 -6 -13
-10 13 -31 17 -13 25 -24 19 -24 -5 0 -23 14 -39 30 -26 27 -64 43 -51 21 4
-5 1 -11 -6 -13 -14 -5 -58 14 -58 25 0 5 4 6 8 3 4 -2 8 4 8 15 0 23 -19 25
-36 4 -10 -11 -9 -18 4 -30 9 -9 16 -19 16 -21 0 -7 -38 15 -45 27 -4 6 -11 6
-18 1 -7 -5 -21 -6 -32 -1 -11 4 -17 8 -13 8 4 1 3 12 -2 25 -6 17 -5 26 3 29
8 3 3 12 -12 26 -29 25 -32 26 -24 4 5 -13 2 -15 -18 -9 -53 15 -59 14 -84
-16 -38 -45 -54 -80 -100 -213 l-41 -120 -84 -42 c-47 -23 -125 -56 -175 -74
-49 -18 -141 -59 -205 -92 -63 -32 -137 -68 -165 -79 -66 -26 -194 -87 -225
-109 -14 -9 -96 -53 -183 -97 -171 -88 -260 -147 -431 -285 -76 -61 -166 -155
-166 -173 0 -10 -4 -31 -9 -48 -5 -17 -21 -69 -34 -116 -28 -95 -60 -185 -87
-245 -38 -83 -70 -249 -70 -357 l0 -78 2880 0 c1879 0 2880 3 2880 10 0 13
-73 259 -121 407 -21 67 -39 128 -39 137 0 46 -74 225 -127 307 -170 263 -250
349 -409 440 -51 29 -231 119 -238 119 -3 0 -35 14 -71 30 -36 17 -68 30 -70
30 -3 0 -40 16 -82 36 -43 20 -100 45 -128 56 -27 11 -72 30 -100 42 -27 13
-61 27 -75 31 -14 4 -80 34 -147 66 -67 32 -190 81 -274 109 -84 28 -190 67
-235 88 -70 32 -83 42 -92 69 -9 28 -6 42 24 101 19 38 37 82 39 98 3 16 12
65 20 109 8 44 13 92 11 108 -2 15 2 33 10 41 9 10 13 34 11 75 -1 34 1 61 6
61 4 0 7 -5 7 -12 0 -28 10 3 15 47 4 27 8 51 10 54 2 2 0 12 -6 22 -7 15 -6
19 6 19 8 0 15 7 15 16 0 8 -4 12 -10 9 -5 -3 -10 -1 -10 4 0 6 5 11 11 11 5
0 7 5 4 10 -3 6 -1 10 4 10 6 0 11 9 11 21 0 12 -4 17 -11 13 -8 -4 -8 -1 0
13 5 11 10 28 10 39 -1 10 2 33 6 49 15 65 3 161 -18 148 -7 -4 -6 0 2 10 20
25 6 32 -17 9 -11 -11 -17 -23 -14 -27 4 -3 2 -9 -3 -13 -20 -14 -57 -104 -51
-124 3 -13 -1 -26 -10 -33 -9 -6 -17 -23 -17 -38 -1 -15 -7 -27 -14 -27 -7 0
-10 -7 -7 -15 4 -8 -1 -17 -10 -21 -9 -3 -13 -10 -10 -15 3 -5 0 -9 -6 -9 -10
0 -28 -36 -35 -73 -2 -9 -7 -22 -11 -29 -4 -7 -3 -8 4 -4 17 10 15 -10 -3 -28
-8 -8 -15 -18 -15 -23 0 -13 -35 -41 -57 -45 -10 -2 -19 -14 -22 -28 -1 -14
-8 -29 -15 -33 -8 -6 -8 -10 1 -13 9 -4 7 -12 -7 -26 -11 -12 -17 -25 -14 -30
3 -4 0 -8 -5 -8 -6 0 -11 -4 -11 -10 0 -5 14 -10 30 -10 17 0 30 -5 30 -11 0
-5 -4 -8 -9 -5 -13 9 -39 -3 -45 -21 -5 -13 -4 -14 8 -4 12 10 15 9 14 -6 0
-10 2 -25 6 -34 5 -10 1 -19 -8 -22 -9 -4 -16 -2 -16 3 0 6 5 10 11 10 5 0 7
5 4 10 -4 6 -12 7 -23 1 -11 -6 -20 -4 -28 7 -11 15 -15 15 -26 3 -11 -12 -11
-13 1 -6 9 5 12 3 9 -5 -5 -17 -40 -22 -51 -7 -7 9 -10 9 -14 0 -6 -17 -43 2
-43 23 0 8 -4 13 -10 9 -5 -3 -6 -13 -3 -23 3 -9 -12 2 -35 26 -41 42 -69 55
-58 27 3 -8 1 -15 -4 -15 -6 0 -11 7 -11 15 -3 32 -4 36 -14 43 -6 4 -16 19
-22 35 -10 22 -10 27 2 27 7 0 20 8 27 18 7 9 22 19 33 20 11 2 21 7 23 12 2
4 12 6 22 3 22 -6 28 12 7 20 -13 5 -54 113 -49 130 1 4 -2 7 -7 7 -26 0 -63
123 -48 160 8 18 -9 42 -41 59 -12 7 -20 16 -17 21 7 11 -25 70 -37 70 -5 0
-5 18 -2 40 4 25 2 45 -6 55 -6 8 -9 19 -5 25 3 5 1 10 -4 10 -6 0 -11 14 -11
31 0 23 4 30 14 26 8 -3 22 3 32 14 23 25 38 24 24 -2 -20 -37 -9 -52 42 -54
26 -1 51 -4 54 -8 12 -12 -8 -28 -29 -21 -33 10 -8 -10 32 -26 29 -12 34 -11
42 2 10 17 48 13 61 -6 5 -7 8 -7 8 2 0 7 4 11 8 8 5 -3 20 1 33 8 58 30 106
24 78 -10 -23 -28 43 5 73 37 16 16 34 27 40 23 7 -4 8 -3 4 4 -5 8 3 12 24
12 22 0 38 8 57 30 13 17 31 30 39 30 8 0 17 7 21 16 3 8 12 13 20 10 9 -4 17
1 20 13 3 11 11 17 18 15 18 -7 23 14 20 75 -3 42 -1 50 10 41 11 -9 12 -7 8
9 -3 12 -10 21 -15 21 -5 0 -6 5 -3 11 4 5 -1 19 -10 29 -9 10 -14 23 -11 28
3 5 -1 15 -9 22 -14 11 -14 15 1 31 9 10 14 27 11 39 -5 20 -4 20 25 3 36 -22
41 -32 67 -159 28 -137 41 -233 41 -298 0 -30 5 -58 10 -61 6 -3 10 -11 10
-16 0 -6 -4 -8 -9 -5 -4 3 -14 -29 -21 -72 -7 -42 -19 -100 -26 -128 -13 -46
-29 -216 -17 -187 2 7 17 10 38 6 28 -4 38 0 67 28 19 19 24 26 12 15 -16 -13
-31 -16 -49 -12 -36 9 -43 35 -17 57 12 9 22 20 22 24 0 14 26 32 41 28 9 -3
23 6 33 21 15 23 45 39 31 17 -3 -5 -1 -13 5 -16 15 -9 56 89 68 165 7 49 8
254 2 410 0 3 -4 11 -9 18 -7 11 -12 12 -29 1 -17 -10 -23 -10 -37 4 -23 23
-35 21 -69 -9 -21 -20 -30 -24 -36 -14 -9 14 1 54 21 91 7 13 14 44 16 69 2
42 19 205 27 275 2 17 7 62 11 100 3 39 14 95 23 125 19 65 25 233 10 273 -9
23 -8 31 3 38 29 18 -41 159 -79 159 -9 0 -12 3 -9 6 7 7 -43 50 -54 47 -4 -1
-4 7 -1 19 3 14 1 19 -6 14 -7 -4 -20 -2 -29 3 -13 8 -14 10 -3 11 22 0 -1 18
-67 51 -32 17 -48 28 -35 25 12 -2 22 0 22 5 0 5 -18 12 -41 15 -22 4 -43 13
-46 20 -3 8 -14 14 -25 14 -10 0 -16 -4 -13 -10 4 -6 -6 -10 -22 -9 -25 0 -26
1 -8 9 17 7 15 9 -11 9 -25 1 -33 6 -38 26 -4 14 -13 25 -21 25 -7 0 -17 10
-21 23 -9 28 -71 90 -83 82 -5 -3 -12 -1 -16 5 -3 5 -1 10 5 10 19 0 0 21 -47
50 -25 16 -51 26 -59 23 -8 -3 -18 4 -23 18 -5 13 -10 20 -10 15 -1 -5 -8 -2
-18 5 -13 11 -17 11 -20 2 -4 -10 -9 -10 -26 -1 -12 7 -26 11 -30 10 -4 -1
-15 5 -24 14 -13 12 -13 18 -4 24 9 5 10 10 2 14 -6 4 -11 2 -11 -4 0 -12 -56
14 -62 29 -2 5 -18 4 -38 -3 -28 -9 -38 -8 -50 2 -23 20 -93 64 -105 66 -10 1
-105 64 -115 75 -3 3 -17 7 -31 8 -22 1 -25 -2 -21 -23z m-174 -3089 c32 -2
54 -10 68 -24 10 -12 23 -19 29 -16 5 4 9 0 9 -8 0 -8 -7 -17 -15 -21 -21 -8
-19 -53 3 -65 11 -7 12 -10 3 -11 -7 0 -11 -6 -8 -14 4 -11 -2 -14 -24 -14
-16 1 -29 5 -29 10 0 4 -9 8 -19 8 -11 0 -23 5 -26 10 -3 6 -18 10 -32 10 -15
0 -23 3 -20 6 3 4 1 16 -5 27 -8 17 -8 19 5 14 9 -3 18 -1 20 6 5 15 -14 58
-23 52 -3 -2 -4 10 -2 27 3 17 8 25 12 18 4 -6 28 -13 54 -15z m431 -19 c11
-2 30 -5 43 -5 l23 -1 -23 -24 c-20 -21 -35 -25 -118 -30 -74 -5 -99 -3 -113
8 -25 19 -18 48 13 58 25 7 136 4 175 -6z m23 -217 c17 -6 32 -15 32 -20 0 -6
5 -7 10 -4 6 3 13 -2 17 -12 3 -10 12 -22 20 -26 20 -12 16 -37 -7 -37 -11 0
-20 6 -20 13 0 8 -3 8 -9 -2 -12 -19 -71 -23 -64 -5 3 8 0 14 -6 14 -6 0 -11
-8 -11 -19 0 -14 -10 -21 -36 -26 -20 -3 -43 -13 -51 -21 -16 -16 -33 -10 -33
12 0 8 -4 14 -10 14 -5 0 -10 -4 -10 -10 0 -5 -5 -10 -11 -10 -7 0 -17 -7 -23
-15 -10 -14 -14 -13 -36 7 -18 17 -22 18 -17 5 4 -12 1 -17 -9 -17 -13 0 -15
6 -9 27 5 23 4 25 -9 14 -9 -7 -14 -16 -12 -20 7 -11 -46 -12 -59 -1 -7 6 -10
20 -7 32 4 17 2 20 -11 15 -10 -4 -17 -2 -17 4 0 6 9 9 20 6 11 -3 20 -2 20 2
0 15 -25 61 -34 61 -5 0 -3 6 3 13 14 18 90 21 109 4 13 -9 14 -9 8 1 -9 16 6
16 22 0 10 -10 15 -10 20 -1 19 30 140 31 230 2z m-767 -66 c51 -86 91 -143
106 -151 11 -6 12 -11 4 -16 -6 -4 -11 -12 -11 -17 0 -6 4 -8 9 -4 11 6 54
-35 59 -56 2 -7 13 -26 25 -43 12 -17 22 -35 23 -41 1 -5 5 -18 9 -27 10 -24
-10 -23 -34 1 -19 19 -20 19 -18 1 1 -10 5 -16 9 -14 4 3 8 -2 8 -10 0 -9 6
-13 14 -10 11 4 13 0 9 -17 -4 -16 -2 -20 8 -17 20 8 44 -8 70 -44 14 -19 17
-29 8 -24 -7 4 -4 -1 9 -10 12 -9 22 -20 22 -25 0 -5 9 -18 20 -29 11 -11 20
-27 20 -35 0 -8 4 -15 10 -15 5 0 14 -10 21 -21 6 -13 7 -19 1 -15 -6 3 -12 0
-15 -6 -2 -7 36 -52 85 -100 49 -49 85 -88 80 -88 -5 0 -17 9 -27 20 -22 24
-32 25 -32 5 0 -8 4 -15 9 -15 4 0 8 -7 8 -15 0 -24 -28 -18 -46 10 -9 14 -25
25 -36 25 -10 0 -16 5 -13 10 3 6 1 10 -5 10 -6 0 -42 32 -81 72 -51 52 -66
73 -57 79 10 7 6 15 -14 34 -30 28 -36 45 -15 45 7 1 5 6 -6 14 -10 8 -19 20
-21 28 -1 7 -5 19 -9 25 -6 9 -3 11 10 7 15 -5 15 -3 -2 10 -40 31 -46 38 -41
51 2 7 -4 21 -15 31 -10 9 -19 14 -19 11 0 -4 -9 1 -20 10 -11 10 -20 25 -20
34 0 9 -7 22 -15 29 -8 7 -15 19 -15 26 0 8 -5 14 -11 14 -5 0 -7 5 -4 10 4 6
-4 27 -16 47 -13 20 -18 33 -12 30 7 -4 15 -2 19 4 4 8 3 9 -4 5 -13 -8 -31
23 -36 63 -2 22 0 28 10 24 16 -6 12 7 -24 75 -28 52 -22 56 9 5z m981 -765
c-16 -6 -16 -7 1 -7 15 -1 16 -8 12 -53 -3 -29 -7 -69 -9 -88 -2 -19 -7 -43
-10 -52 -4 -9 -9 -23 -10 -32 -1 -8 -39 -56 -85 -106 -46 -50 -93 -103 -104
-118 -25 -34 -43 -52 -33 -35 10 18 -10 51 -42 67 -42 22 -90 75 -97 108 -4
16 -13 32 -20 34 -8 3 -12 19 -11 37 1 18 -2 44 -5 59 -4 15 -4 30 1 33 10 6
-28 55 -42 55 -5 0 -7 -4 -3 -9 3 -5 1 -12 -5 -16 -11 -7 -12 0 -4 31 5 19 10
21 42 13 48 -11 60 -11 42 1 -9 6 -10 10 -3 10 7 0 17 -9 23 -20 9 -16 21 -19
75 -19 35 1 69 -2 74 -5 14 -9 91 26 91 41 0 7 6 13 13 13 7 0 35 20 63 44 32
29 51 40 56 33 4 -7 0 -15 -10 -19z"/>
<path d="M2333 3602 c-18 -2 -33 -7 -33 -12 0 -5 -15 -10 -32 -12 -28 -2 -35
-9 -44 -38 -9 -26 -18 -36 -37 -38 -18 -2 -24 -8 -20 -18 4 -10 0 -12 -11 -8
-19 7 -22 -12 -3 -20 9 -3 8 -8 -4 -15 -9 -6 -15 -21 -14 -33 1 -13 3 -33 4
-45 1 -17 7 -23 26 -23 27 0 34 -17 10 -26 -8 -4 -15 -11 -15 -17 0 -6 3 -7 7
-4 3 4 13 -2 20 -13 8 -11 19 -18 24 -15 5 4 9 -1 9 -9 0 -9 4 -16 9 -16 5 0
11 -12 13 -27 2 -22 9 -29 31 -31 15 -2 27 -7 27 -11 0 -13 67 -81 80 -81 9 0
7 7 -5 20 -25 27 -12 36 30 21 19 -7 40 -9 46 -5 7 4 9 3 6 -3 -5 -7 15 -14
54 -18 33 -4 63 -13 65 -20 4 -9 16 -8 54 4 26 9 52 19 56 24 13 13 -32 8 -70
-8 -38 -16 -47 -11 -18 11 9 7 13 14 7 14 -5 0 -17 4 -25 10 -12 8 -12 11 2
27 9 10 18 36 20 58 l3 40 41 -38 c23 -20 47 -37 55 -37 22 0 -7 -22 -33 -25
-37 -4 -39 -5 -34 -13 3 -6 55 -7 99 -3 4 1 7 11 7 24 0 16 3 18 9 8 7 -11 11
-10 19 5 10 18 11 18 31 0 20 -19 29 -56 13 -56 -4 0 -8 -9 -8 -19 0 -15 4
-17 18 -10 36 19 43 129 13 192 -9 20 -14 41 -10 46 3 6 1 11 -6 11 -7 0 -6 9
5 25 12 18 13 24 4 23 -8 -2 -14 10 -16 34 -3 30 -8 38 -33 47 -16 5 -32 17
-35 25 -3 9 -10 14 -14 11 -5 -3 -35 2 -67 11 -32 8 -69 17 -83 20 -66 12 -80
16 -80 24 0 5 -10 6 -22 1 -18 -6 -27 -3 -41 16 -13 16 -27 22 -45 21 -15 -2
-42 -4 -59 -6z m143 -182 c32 -11 64 -18 71 -16 7 3 13 1 13 -4 0 -6 8 -10 18
-10 20 0 56 -33 46 -42 -3 -3 -42 -3 -87 -1 -46 3 -106 0 -137 -7 -105 -22
-126 -23 -145 -4 -17 17 -16 18 6 26 20 8 21 11 9 19 -11 8 -12 12 -3 15 7 3
9 12 6 20 -4 12 0 12 31 -1 19 -8 46 -14 58 -14 l23 2 -22 4 c-13 2 -23 9 -23
14 0 6 8 8 18 5 9 -3 24 -1 32 4 20 13 18 13 86 -10z"/>
</g>
</svg>
